<svg xmlns="http://www.w3.org/2000/svg" width="367" height="418.708" viewBox="0 0 367 418.708">
  <g id="Page-1" transform="translate(-11 -7.294)">
    <g id="_01" data-name="01" transform="translate(-24 -145)">
      <g id="Group-217" transform="translate(35 152)">
        <path id="Fill-1" d="M150,118A105,105,0,1,0,255,13,105,105,0,0,0,150,118" fill="#ffeadb" fill-rule="evenodd"/>
        <path id="Fill-3" d="M264.561,17a21.7,21.7,0,0,1,10.212-.658,12.465,12.465,0,0,1,8.262,5.442c1.949,3.268,1.763,7.266,1.525,11.02q-.9,14.106-1.8,28.21c-.168,2.608-.315,5.326.744,7.737s3.722,4.391,6.4,3.863a23.989,23.989,0,0,0,3.812-1.626c1.293-.5,3.018-.517,3.829.565a3.165,3.165,0,0,1,.411,2.29,11.156,11.156,0,0,1-5.854,8.409c1.885-.871,4.248.946,4.279,2.94s-1.654,3.724-3.6,4.469a16.44,16.44,0,0,1-6.189.677,3.151,3.151,0,0,1,2.881,3.423,4.754,4.754,0,0,1-3.11,3.642,11,11,0,0,1-5.086.514,19.756,19.756,0,0,1-10.158-3.61c-5.018-3.79-7.051-10.258-7.12-16.367s1.52-12.112,2.414-18.16c2.071-14.036.376-28.3-1.319-42.379l1.235-.357" fill="#132b57" fill-rule="evenodd"/>
        <path id="Fill-5" d="M282.977,228.754c-4.074,3.819-5.622,9.764-1.737,14.35a11.589,11.589,0,0,0,15.305,1.792c11.033-8.309-.466-23.644-12.37-20.47a1.925,1.925,0,0,0,.523,3.776c3.48.192,7.206.321,9.988,2.7a6.95,6.95,0,0,1,.6,9.825c-6.488,7.788-17.759-3.68-10.945-10.642.861-.879-.466-2.177-1.366-1.334" fill="#7cabff" fill-rule="evenodd"/>
        <path id="Fill-7" d="M164.337,188.032c-1.383-1.583-2.91-2.8-3.6-4.914-1.383-4.22,1.257-6.314,4.358-7.884,3.156-1.6,5.7-3.464,6.64-7.315,1.465-6.015-3.279-13.433-9.343-11.649-1.967.579-1.381,3.281-.037,4.119,1.875,1.169,4.39,1.838,4.706,4.628.423,3.73-2.986,4.8-5.369,6.14a10.818,10.818,0,0,0-5.339,6.726c-1.406,5.262,1.506,12.409,7.2,12.108a1.263,1.263,0,0,0,.784-1.959" fill="#ff7643" fill-rule="evenodd"/>
        <path id="Fill-9" d="M146.011,252.067c.541,3.465,4.187,10.8,8.025,11.808,2.043.541,3.561-.787,5.149-1.867,2.887-1.962,5.735-3.968,8.589-5.972a2.448,2.448,0,0,0,.878-3.311q-3.787-5.75-7.573-11.506a2.492,2.492,0,0,0-3.351-.865c-3.149,2.2-6.56,4.225-9.4,6.8-1.954,1.778.536,4.684,2.755,3.525,3.22-1.683,6.142-4.076,9.116-6.152q-1.677-.438-3.351-.87,3.784,5.754,7.571,11.5l.879-3.308c-1.712,1.2-3.429,2.4-5.136,3.609-.968.686-4.205,3.68-5.281,3.56-.964-.107-2.985-3.5-3.578-4.193a19.618,19.618,0,0,0-3.912-3.816c-.752-.509-1.492.329-1.381,1.049" fill="#fbc580" fill-rule="evenodd"/>
        <path id="Fill-11" d="M314.012,96.066c.54,3.465,4.186,10.8,8.025,11.81,2.042.539,3.56-.79,5.148-1.869,2.884-1.959,5.735-3.969,8.589-5.973a2.446,2.446,0,0,0,.878-3.31q-3.787-5.751-7.573-11.5a2.492,2.492,0,0,0-3.351-.867c-3.148,2.2-6.56,4.225-9.4,6.807-1.955,1.777.533,4.684,2.755,3.522,3.219-1.683,6.141-4.075,9.116-6.152-1.119-.292-2.235-.578-3.351-.87q3.783,5.754,7.57,11.506.439-1.656.879-3.31c-1.712,1.2-3.429,2.4-5.136,3.609-.967.686-4.2,3.679-5.28,3.56-.965-.108-2.988-3.5-3.579-4.191a19.454,19.454,0,0,0-3.911-3.816c-.755-.511-1.495.326-1.381,1.047" fill="#fbc580" fill-rule="evenodd"/>
        <path id="Fill-13" d="M328.888,157.117c-6.272,3.038-12.441,6.248-18.6,9.539a2.216,2.216,0,0,0-.567,3.662c4.51,4.863,8.961,9.74,13.807,14.24a1.878,1.878,0,0,0,2.927-.742c3.01-6.844,7.578-16.177,6.328-23.945-.318-1.975-3.212-2.873-3.987-.671-1.211,3.446-1.2,7.31-1.981,10.9a58.505,58.505,0,0,1-3.835,12.117l3.277-.357c-4.419-5.212-9.2-10.012-13.976-14.864q-.039,1.693-.084,3.391c6.033-3.53,12.011-7.114,17.907-10.888,1.243-.795.119-3.028-1.221-2.379" fill="#ff7081" fill-rule="evenodd"/>
        <path id="Fill-15" d="M210.2,246.573a122.667,122.667,0,0,0,12.546-17.525c1.108-1.947-1.623-4.174-3.019-2.4a124.38,124.38,0,0,0-11.56,18.312c-.707,1.332,1.056,2.779,2.033,1.614" fill="#ff7081" fill-rule="evenodd"/>
        <path id="Fill-17" d="M365.882,62.4l-.343-.3a3.847,3.847,0,1,0-5.447,5.435c.1.114.2.226.3.342a3.875,3.875,0,1,0,5.486-5.475" fill="#ff7643" fill-rule="evenodd"/>
        <path id="Fill-19" d="M183.882,212.4l-.343-.3a3.847,3.847,0,0,0-5.447,5.435c.1.114.2.226.3.34a3.875,3.875,0,0,0,5.488-5.473" fill="#ff7643" fill-rule="evenodd"/>
        <path id="Fill-21" d="M239,85.745,168.479,112.36l6.73-28.67L156.869,79s-19.728,56.046-6.027,57.543c23.985,2.628,60.279-6.934,60.279-6.934Z" fill="#ffafa7" fill-rule="evenodd"/>
        <path id="Fill-23" d="M214,146.939l.155,54.666c17.781,22.129,79.685-6.487,79.685-6.487l.722-22.357L296,119.507C294.574,98.3,275.116,87.89,275.116,87.89c-8.042-4.055-20.309-6.362-31.362-5.809-11.537.577-14.389,6.171-19.142,16.828C220.773,107.522,214,115.6,214,146.939" fill="#ff7643" fill-rule="evenodd"/>
        <path id="Fill-25" d="M271.7,31.307l-.83,10.951s9.306,1.257,6.653,9.75-9.019,4.776-9.019,4.776-1.592,21.767-23.871,14.864c-17.735-5.491-16.65-28.468-14.4-48.057a13.109,13.109,0,0,1,15.541-11.345l13.4,2.612A15.555,15.555,0,0,1,271.7,31.307" fill="#ffafa7" fill-rule="evenodd"/>
        <path id="Fill-27" d="M272,51l-6.1,32.4A13.058,13.058,0,0,1,240.2,78.729l3.314-18.568Z" fill="#ffafa7" fill-rule="evenodd"/>
        <path id="Fill-29" d="M245.979,52.08a.83.83,0,0,1-.359.835c-.469.338-1.22-.368-1.414-1.509a15.942,15.942,0,0,1-.183-3.746c.047-1.456.094-2.894.144-4.4.25-6.242.642-11.283.873-11.257s.216,5.1-.034,11.341c-.071,1.5-.139,2.942-.209,4.4a18.189,18.189,0,0,0-.021,3.408c.1.9.5,1.319.759,1.277s.387-.4.444-.34" fill="#241352" fill-rule="evenodd"/>
        <path id="Fill-31" d="M240.008,69.024c.182-.321,4.548,2.694,10.93,2.8,6.383.14,10.888-2.71,11.055-2.382.1.113-.863.98-2.8,1.88a19.407,19.407,0,0,1-16.468-.31c-1.9-.973-2.815-1.873-2.713-1.984" fill="#241352" fill-rule="evenodd"/>
        <path id="Fill-33" d="M244.027,56.737c.142-.117.637.306,1.54.672a5.486,5.486,0,0,0,3.61.223,5.269,5.269,0,0,0,2.8-2.219c.516-.806.664-1.429.852-1.413.147,0,.328.7-.06,1.777a5.074,5.074,0,0,1-3.21,3,5.289,5.289,0,0,1-4.415-.626c-.958-.651-1.237-1.326-1.115-1.411" fill="#241352" fill-rule="evenodd"/>
        <path id="Fill-35" d="M272.026,51.782c-.01-.162.358-.258.746-.59a1.212,1.212,0,0,0,.4-.71c.052-.321-.02-.563-.177-.626a.234.234,0,0,0-.28.025L272,49.4c.564-1.483,1.086-2.492,1.261-2.391s-.053,1.279-.522,2.815l-.715-.483a.917.917,0,0,1,1.273-.506,1.312,1.312,0,0,1,.654.912,2.128,2.128,0,0,1-.038,1.053,1.639,1.639,0,0,1-.885,1.094c-.642.244-1,.019-1-.109" fill="#ff7643" fill-rule="evenodd"/>
        <path id="Fill-37" d="M257.009,31.784c-.116-.26.918-.808,2.242-.482s1.937,1.268,1.7,1.442c-.233.2-1-.21-1.983-.434-.978-.254-1.862-.244-1.957-.526" fill="#241352" fill-rule="evenodd"/>
        <path id="Fill-39" d="M237.014,28.174c-.155-.25.978-.916,2.583-.8s2.581.936,2.376,1.16c-.191.248-1.224-.042-2.485-.122-1.26-.106-2.335.03-2.474-.242" fill="#241352" fill-rule="evenodd"/>
        <path id="Fill-41" d="M270.275,42.41c-6.087-6.114-7.875-16.3-9.526-24.89a20.788,20.788,0,0,1-19.888,2.669,32.37,32.37,0,0,1-7.084,6.378,3.1,3.1,0,0,1-2.5.714c-1.021-.316-1.476-1.524-1.718-2.593a18.99,18.99,0,0,1,.355-10.4A12.378,12.378,0,0,1,236.684,6.8c3.4-1.358,7.235-.768,10.769.175a58.815,58.815,0,0,1,15.2,6.472c4.659,2.813,9.133,6.531,11.107,11.707s1.968,15.233-2.8,17.848" fill="#132b57" fill-rule="evenodd"/>
        <path id="Fill-43" d="M235.444,86.225C241.64,83.869,194,100.8,194,100.8l4.831,31.2,18.12-5.691Z" fill="#ff7643" fill-rule="evenodd"/>
        <path id="Fill-45" d="M172.768,85s12.138-17.091,9.974-17.081-3.293,3.225-7.5,5.427c0,0,6.708-21.371,4.632-20.923s-7.027,14.166-7.352,14.151S176.8,51.19,175.074,51s-5.943,14.109-5.943,14.109,2.892-13.591,1.067-13.9-4.517,12.216-4.517,12.216,2.152-10.514.492-10.772C165.162,52.505,156,78.585,156,78.585c.241,0,16.768,6.415,16.768,6.415" fill="#ffafa7" fill-rule="evenodd"/>
        <path id="Fill-47" d="M267.529,145a9.043,9.043,0,0,1-.545-2.438c-.265-1.579-.6-3.866-.995-6.7-.778-5.666-1.773-13.487-2.77-22.161a24,24,0,0,1,.008-6.5,11.49,11.49,0,0,1,2.588-5.654,16.093,16.093,0,0,1,9.321-5.167,23.978,23.978,0,0,1,7.271-.2,8.22,8.22,0,0,1,2.593.547,15.37,15.37,0,0,1-2.637-.056,27.409,27.409,0,0,0-7.021.576,15.427,15.427,0,0,0-8.556,5.011,10.487,10.487,0,0,0-2.264,5.129,23.6,23.6,0,0,0,.031,6.183c.994,8.648,1.84,16.5,2.377,22.19.27,2.842.465,5.149.571,6.742a8.96,8.96,0,0,1,.028,2.491" fill="#ce5021" fill-rule="evenodd"/>
        <path id="Fill-49" d="M265,142.1c.036-.336,8.351.245,18.566,1.3s18.47,2.178,18.434,2.514-8.346-.245-18.566-1.3S264.964,142.431,265,142.1" fill="#241352" fill-rule="evenodd"/>
        <g id="Group-53" transform="translate(117)">
          <path id="Fill-51" d="M93.4,3.024V40.037H68.961l-.778,14.038L53.824,39.224H.025L4.763.294Z" fill="#ff7643" fill-rule="evenodd"/>
        </g>
        <path id="Fill-54" d="M203.8,13.831c-23.769-.394-47.695-.53-71.464-.118a.291.291,0,1,0,0,.574c23.769.412,47.695.274,71.464-.12.264,0,.267-.332,0-.336" fill="#e6e2eb" fill-rule="evenodd"/>
        <path id="Fill-56" d="M203.8,21.831c-23.769-.392-47.695-.53-71.464-.118a.291.291,0,1,0,0,.574c23.769.412,47.695.274,71.464-.118a.171.171,0,1,0,0-.338" fill="#e6e2eb" fill-rule="evenodd"/>
        <path id="Fill-58" d="M200.8,29.831c-14.411-.374-29.056-.488-43.469-.118a.29.29,0,1,0,0,.574c14.413.368,29.058.256,43.469-.118a.171.171,0,1,0,0-.338" fill="#e6e2eb" fill-rule="evenodd"/>
        <path id="Fill-60" d="M237.729,37.815c-.262.128-.658-.144-1.032-.49s-.664-.73-.552-1,.742-.254,1.266.24.576,1.132.318,1.25" fill="#241352" fill-rule="evenodd"/>
        <path id="Fill-62" d="M256.831,38.985c-.266.1-.728-.284-1.178-.775s-.762-.966-.574-1.149.88.053,1.408.633.6,1.2.344,1.291" fill="#241352" fill-rule="evenodd"/>
        <path id="Fill-70" d="M272.255,27.98c-.105-.141.284-.7-.07-1.729-.295-.994-1.191-2.419-1.9-4.049-1.508-3.248-2.509-6.019-2.236-6.194s1.729,2.335,3.25,5.607a18.878,18.878,0,0,1,1.675,4.436,2.463,2.463,0,0,1-.25,1.605c-.218.326-.419.38-.465.323" fill="#ff7643" fill-rule="evenodd"/>
        <path id="Fill-72" d="M219.184,133.786,215,188.38,273,196l-3.925-63Z" fill="#132b57" fill-rule="evenodd"/>
        <path id="Fill-74" d="M222,96.4V139l7-2.448V88l-7,1.988" fill="#132b57" fill-rule="evenodd"/>
        <path id="Fill-76" d="M275.711,90s-25.969,3.311-18.292,45.311l6.507.689S256.588,96.541,281,93.725Z" fill="#132b57" fill-rule="evenodd"/>
        <path id="Fill-78" d="M268.652,138s8.817,52.133-3.617,50.851c-40.9-4.22-65.256-4.79-65.256-4.79L193,198.185c-.157,2.406,77.457,24.7,89.928,17.328,8.8-5.206,22.833-19.223,16.466-61.114l-1.505-14.04Z" fill="#ffafa7" fill-rule="evenodd"/>
        <path id="Fill-80" d="M290.455,103.9S299.891,113.117,302,148l-36.518-4.11S259.4,84.482,290.455,103.9" fill="#ff7643" fill-rule="evenodd"/>
        <path id="Fill-82" d="M204.355,184.632s-20.128-6.281-19.44-4.215,4.119,2.143,7.543,5.473c0,0-22.5.242-21.42,2.087s15.727,2.307,15.816,2.62-16.022.707-15.658,2.412,15.332,1.29,15.332,1.29-13.875,1.468-13.593,3.306,13.08.515,13.08.515-10.708,1.216-10.43,2.881c.17,1.015,31.35,1.247,31.415,1.993.034.389-2.645-18.362-2.645-18.362" fill="#ffafa7" fill-rule="evenodd"/>
        <path id="Fill-84" d="M229.294,132c.154-.016.54.93.69,2.66a6.049,6.049,0,0,1-.546,3.1A3.708,3.708,0,0,1,226.247,140a4.078,4.078,0,0,1-3.3-2.016,6.516,6.516,0,0,1-.924-2.98c-.1-1.725.115-2.728.272-2.739.2-.013.311,1.04.632,2.584a6.563,6.563,0,0,0,.988,2.4,3.1,3.1,0,0,0,2.325,1.383,2.618,2.618,0,0,0,2.151-1.491,5.789,5.789,0,0,0,.672-2.486c.09-1.573.028-2.634.227-2.655" fill="#ce5021" fill-rule="evenodd"/>
        <path id="Fill-86" d="M226.528,134.382c.067.1-.011.295.078.52.119.259.233.321.449.187.2-.153.19-.287,0-.5-.167-.17-.372-.17-.437-.271-.085-.075.156-.419.677-.291a.961.961,0,0,1,.662.651,1.038,1.038,0,0,1-.436,1.132.949.949,0,0,1-1.516-.9c.083-.542.483-.637.52-.53" fill="#ce5021" fill-rule="evenodd"/>
        <path id="Fill-88" d="M263.475,133.006c.139-.068.671.466.487,1.478A3.426,3.426,0,0,1,260.648,137a3.562,3.562,0,0,1-3.558-2.275c-.287-1,.19-1.564.334-1.507.206.039.15.573.577,1.231a3.1,3.1,0,0,0,2.589,1.413,2.978,2.978,0,0,0,2.437-1.59c.356-.684.248-1.214.448-1.266" fill="#ce5021" fill-rule="evenodd"/>
        <path id="Fill-90" d="M261.136,129.731c-.07-.143.146-.716.713-.731.268,0,.633.161.911.745a3.218,3.218,0,0,1,.046,2.322c-.232.707-.822,1.195-1.308.78a2.188,2.188,0,0,1-.484-1.745,1.35,1.35,0,0,1,.414-.991c.173-.088.26.026.268.117a2.606,2.606,0,0,0-.067.915c.121.538.218.555.441.1a.983.983,0,0,0-.312-1.181c-.3-.225-.558-.146-.622-.333" fill="#ce5021" fill-rule="evenodd"/>
        <path id="Fill-92" d="M258.78,157c-.286-.075-.332-1.194-.3-2.513s.14-2.426.428-2.481.656,1.071.614,2.526-.468,2.546-.744,2.468" fill="#ce5021" fill-rule="evenodd"/>
        <path id="Fill-94" d="M254.04,165.944c-.164-.253.2-1.185.694-2.227s.972-1.855,1.181-1.7.041,1.3-.5,2.438-1.214,1.736-1.371,1.486" fill="#ce5021" fill-rule="evenodd"/>
        <path id="Fill-96" d="M246,170.55c-.055-.29,1.025-.638,2.338-.968s2.454-.526,2.638-.27-.765.9-2.215,1.262-2.711.256-2.761-.024" fill="#ce5021" fill-rule="evenodd"/>
        <path id="Fill-98" d="M235.018,169.382c.164-.262,1.3-.1,2.62.184s2.4.608,2.361.9-1.28.416-2.727.1-2.418-.932-2.254-1.186" fill="#ce5021" fill-rule="evenodd"/>
        <path id="Fill-100" d="M228.074,163.023c.2-.172.669.636,1.171,1.672s.871,1.968.722,2.24-.806-.3-1.354-1.44-.731-2.307-.539-2.472" fill="#ce5021" fill-rule="evenodd"/>
        <path id="Fill-102" d="M226.988,153c.29.038.434,1.14.518,2.459s.066,2.447-.218,2.535-.734-.982-.82-2.432.238-2.6.52-2.562" fill="#ce5021" fill-rule="evenodd"/>
        <path id="Fill-104" d="M234,152.072c-.013.288-1.143.488-2.521.448s-2.489-.306-2.479-.592,1.143-.488,2.524-.448,2.488.3,2.476.592" fill="#ce5021" fill-rule="evenodd"/>
        <path id="Fill-106" d="M244,152.072c-.013.288-1.143.488-2.524.448s-2.488-.3-2.476-.592,1.143-.488,2.524-.448,2.488.3,2.476.592" fill="#ce5021" fill-rule="evenodd"/>
        <path id="Fill-108" d="M255,152.072c-.013.288-1.143.488-2.524.448s-2.488-.306-2.476-.592,1.143-.488,2.524-.448,2.488.3,2.476.592" fill="#ce5021" fill-rule="evenodd"/>
        <path id="Fill-110" d="M259.294,263.057a138.987,138.987,0,0,0,2.7-21.132c.083-2.176-3.049-2.72-3.41-.522A139.38,139.38,0,0,0,257,262.7a1.162,1.162,0,0,0,2.294.354" fill="#ff957e" fill-rule="evenodd"/>
        <path id="Fill-112" d="M293.883,285.4c-.114-.1-.229-.2-.343-.3a3.848,3.848,0,1,0-5.448,5.436l.3.342a3.876,3.876,0,0,0,5.488-5.476" fill="#ff7643" fill-rule="evenodd"/>
        <g id="Group-116" transform="translate(4 209)">
          <path id="Fill-114" d="M210.222,105.323A104.615,104.615,0,1,1,105.607.647,104.648,104.648,0,0,1,210.222,105.323" fill="#ffeadb" fill-rule="evenodd"/>
          <path id="Fill-114-2" data-name="Fill-114" d="M210.222,105.323A104.615,104.615,0,1,1,105.607.647,104.648,104.648,0,0,1,210.222,105.323" fill="#ffeadb" fill-rule="evenodd"/>
        </g>
        <path id="Fill-117" d="M125,278.748l70.524,26.613-6.733-28.668L207.131,272s19.728,56.043,6.027,57.543c-23.985,2.628-60.277-6.934-60.277-6.934Z" fill="#ffafa7" fill-rule="evenodd"/>
        <path id="Fill-119" d="M149,341.939l-.155,54.666c-17.781,22.129-79.685-6.487-79.685-6.487l-.723-22.357L67,314.507C68.426,293.3,87.884,282.89,87.884,282.89c8.041-4.056,20.309-6.36,31.364-5.809,11.535.579,14.387,6.171,19.14,16.828C142.229,302.521,149,310.6,149,341.939" fill="#ff7643" fill-rule="evenodd"/>
        <path id="Fill-121" d="M94.348,331s-8.817,52.134,3.617,50.851c40.9-4.219,65.256-4.788,65.256-4.788L170,391.185c.157,2.406-77.457,24.7-89.928,17.329-8.805-5.206-22.833-19.221-16.465-61.112l1.5-14.043Z" fill="#ffafa7" fill-rule="evenodd"/>
        <path id="Fill-123" d="M71.545,297.9S62.109,307.12,60,342l36.518-4.11S102.6,278.481,71.545,297.9" fill="#ff7643" fill-rule="evenodd"/>
        <path id="Fill-125" d="M89.3,225.307l.83,10.951s-9.306,1.255-6.651,9.75,9.017,4.776,9.017,4.776,1.592,21.765,23.875,14.864c17.733-5.493,16.648-28.469,14.4-48.057a13.11,13.11,0,0,0-15.541-11.345l-13.4,2.609A15.561,15.561,0,0,0,89.3,225.307" fill="#ffafa7" fill-rule="evenodd"/>
        <path id="Fill-127" d="M91,244l6.106,32.395a13.056,13.056,0,0,0,25.691-4.666l-3.314-18.568Z" fill="#ffafa7" fill-rule="evenodd"/>
        <path id="Fill-129" d="M116.021,245.08c.057-.06.176.293.444.343s.662-.383.759-1.279a18.186,18.186,0,0,0-.021-3.408c-.07-1.454-.138-2.889-.209-4.395-.25-6.242-.267-11.318-.034-11.341s.622,5.016.875,11.257c.048,1.509.1,2.95.142,4.4a15.942,15.942,0,0,1-.183,3.746c-.194,1.141-.945,1.847-1.414,1.509a.83.83,0,0,1-.359-.835" fill="#241352" fill-rule="evenodd"/>
        <path id="Fill-131" d="M123.992,264.024c.1.111-.815,1.011-2.713,1.983a19.393,19.393,0,0,1-16.468.31c-1.942-.9-2.9-1.766-2.8-1.879.17-.328,4.672,2.521,11.055,2.378,6.382-.1,10.747-3.113,10.93-2.792" fill="#241352" fill-rule="evenodd"/>
        <path id="Fill-133" d="M117.973,248.737c.122.085-.157.759-1.115,1.411a5.294,5.294,0,0,1-4.415.626,5.065,5.065,0,0,1-3.211-3c-.386-1.072-.207-1.777-.057-1.777.187-.016.335.608.848,1.416a5.3,5.3,0,0,0,2.8,2.216,5.5,5.5,0,0,0,3.612-.223c.9-.366,1.4-.79,1.54-.672" fill="#241352" fill-rule="evenodd"/>
        <path id="Fill-135" d="M88.974,246.782c0,.128-.36.353-1,.109a1.641,1.641,0,0,1-.885-1.1,2.1,2.1,0,0,1-.039-1.052,1.305,1.305,0,0,1,.653-.909.915.915,0,0,1,1.273.506l-.715.481c-.469-1.535-.7-2.715-.522-2.814s.7.909,1.261,2.39l-.717.485a.228.228,0,0,0-.281-.027c-.157.062-.229.306-.175.627a1.21,1.21,0,0,0,.4.71c.387.332.756.429.746.59" fill="#ff7643" fill-rule="evenodd"/>
        <path id="Fill-137" d="M106.991,224.784c-.095.282-.979.274-1.957.526-.987.226-1.753.636-1.983.434-.239-.174.373-1.122,1.7-1.442s2.36.222,2.244.482" fill="#241352" fill-rule="evenodd"/>
        <path id="Fill-139" d="M125.986,221.174c-.139.272-1.214.138-2.474.242-1.261.08-2.294.37-2.485.122-.205-.224.773-1.046,2.378-1.16s2.736.546,2.581.8" fill="#241352" fill-rule="evenodd"/>
        <path id="Fill-141" d="M92.723,235.41c6.087-6.114,7.875-16.3,9.526-24.89a20.788,20.788,0,0,0,19.888,2.669,32.374,32.374,0,0,0,7.084,6.376,3.1,3.1,0,0,0,2.505.716c1.021-.319,1.476-1.524,1.718-2.6a18.963,18.963,0,0,0-.352-10.4,12.39,12.39,0,0,0-6.778-7.485c-3.4-1.358-7.232-.768-10.767.176a58.817,58.817,0,0,0-15.2,6.472c-4.659,2.81-9.131,6.531-11.108,11.7s-1.965,15.233,2.8,17.85" fill="#132b57" fill-rule="evenodd"/>
        <path id="Fill-143" d="M127.556,279.225C121.362,276.869,169,293.8,169,293.8L164.167,325l-18.12-5.691Z" fill="#ff7643" fill-rule="evenodd"/>
        <path id="Fill-145" d="M158.645,376.631s20.129-6.279,19.438-4.214-4.118,2.142-7.54,5.475c0,0,22.5.242,21.419,2.086s-15.729,2.306-15.818,2.621,16.021.707,15.66,2.412-15.333,1.29-15.333,1.29,13.874,1.466,13.592,3.306-13.077.515-13.077.515,10.707,1.217,10.427,2.879c-.17,1.018-31.348,1.247-31.413,1.993-.034.392,2.645-18.363,2.645-18.363" fill="#ffafa7" fill-rule="evenodd"/>
        <path id="Fill-147" d="M189.232,279s-12.138-17.088-9.974-17.081,3.293,3.225,7.5,5.43c0,0-6.705-21.374-4.632-20.925s7.03,14.165,7.355,14.153S185.2,245.193,186.926,245s5.943,14.108,5.943,14.108-2.892-13.59-1.067-13.895,4.517,12.216,4.517,12.216-2.152-10.514-.492-10.772c1.011-.154,10.173,25.926,10.173,25.926-.241,0-16.768,6.415-16.768,6.415" fill="#ffafa7" fill-rule="evenodd"/>
        <path id="Fill-149" d="M78.4,325c.13-.013.571.721.6,2.179a2.9,2.9,0,0,1-1.279,2.374,2.462,2.462,0,0,1-1.858.4,3.168,3.168,0,0,1-1.618-.971c-.771-.839-1.275-1.335-2.067-1.422a2.384,2.384,0,0,0-1.88.5c-.922.786-.893,1.692-1.08,1.68-.125.074-.6-.968.434-2.243a3.175,3.175,0,0,1,2.657-1,3.33,3.33,0,0,1,1.661.588,9.007,9.007,0,0,1,1.188,1.109c1.241,1.58,2.871.036,2.96-1.1.2-1.2.082-2.08.286-2.094" fill="#fcf2fc" fill-rule="evenodd"/>
        <path id="Fill-151" d="M89.009,316.114c-.078-.1.357-.857,1.66-1.663a3.184,3.184,0,0,1,2.794-.225,2.274,2.274,0,0,1,1.315,1.314,2.989,2.989,0,0,1-.047,1.855,3.22,3.22,0,0,0-.227,2.471,2.219,2.219,0,0,0,1.415,1.281c1.176.333,1.979-.176,2.066-.017.13.063-.567,1.017-2.246.85a3.01,3.01,0,0,1-2.265-1.649,3.061,3.061,0,0,1-.319-1.683,8.914,8.914,0,0,1,.39-1.58c.789-1.871-1.433-2.385-2.506-1.846-1.178.484-1.915,1.054-2.031.892" fill="#fcf2fc" fill-rule="evenodd"/>
        <path id="Fill-153" d="M89.009,293.115c-.078-.1.357-.857,1.658-1.663a3.182,3.182,0,0,1,2.8-.225,2.26,2.26,0,0,1,1.313,1.313,2.973,2.973,0,0,1-.045,1.855c-.364,1.086-.555,1.77-.227,2.469a2.219,2.219,0,0,0,1.412,1.283c1.178.333,1.981-.176,2.069-.016.13.062-.567,1.016-2.248.849a3.017,3.017,0,0,1-2.262-1.648,3.089,3.089,0,0,1-.321-1.686,8.938,8.938,0,0,1,.392-1.577c.789-1.871-1.433-2.385-2.506-1.846-1.181.484-1.915,1.054-2.031.892" fill="#fcf2fc" fill-rule="evenodd"/>
        <path id="Fill-155" d="M110.5,322.988c-.1.084-.923-.266-1.875-1.437a2.846,2.846,0,0,1-.486-2.643,2.242,2.242,0,0,1,1.249-1.361,3.351,3.351,0,0,1,1.931-.113,3.655,3.655,0,0,0,2.588.005,2.16,2.16,0,0,0,1.206-1.456c.244-1.149-.36-1.869-.2-1.966.056-.128,1.109.454,1.083,2.065a2.863,2.863,0,0,1-1.511,2.3,3.42,3.42,0,0,1-1.722.447,10.292,10.292,0,0,1-1.675-.237c-2.017-.594-2.351,1.566-1.7,2.541.609,1.081,1.266,1.733,1.109,1.857" fill="#fcf2fc" fill-rule="evenodd"/>
        <path id="Fill-157" d="M125.993,346.957c.072.116-.44.9-1.862,1.673a3.229,3.229,0,0,1-2.938.028,2.454,2.454,0,0,1-1.271-1.532,3.351,3.351,0,0,1,.2-2.007c.462-1.155.715-1.881.43-2.665a2.367,2.367,0,0,0-1.377-1.5c-1.2-.456-2.08.035-2.159-.144-.131-.08.67-1.061,2.414-.746a3.172,3.172,0,0,1,2.233,1.966,3.462,3.462,0,0,1,.2,1.853,9.832,9.832,0,0,1-.534,1.682c-.972,1.971,1.311,2.7,2.473,2.2,1.269-.434,2.083-.993,2.191-.809" fill="#fcf2fc" fill-rule="evenodd"/>
        <path id="Fill-159" d="M145.993,308.957c.074.116-.44.9-1.862,1.673a3.229,3.229,0,0,1-2.938.028,2.451,2.451,0,0,1-1.271-1.532,3.354,3.354,0,0,1,.2-2.007c.462-1.155.714-1.881.43-2.665a2.367,2.367,0,0,0-1.377-1.5c-1.2-.456-2.08.038-2.159-.144-.131-.08.672-1.061,2.413-.746a3.169,3.169,0,0,1,2.233,1.966,3.453,3.453,0,0,1,.2,1.853,9.832,9.832,0,0,1-.534,1.682c-.972,1.971,1.311,2.7,2.473,2.2,1.269-.434,2.082-.993,2.191-.809" fill="#fcf2fc" fill-rule="evenodd"/>
        <path id="Fill-161" d="M157.518,303.023c.088-.1,1.062.11,2.354,1.135a2.93,2.93,0,0,1,1.1,2.616,2.232,2.232,0,0,1-1.065,1.613,3.9,3.9,0,0,1-2.079.458c-1.318-.052-2.137-.047-2.816.455a2.143,2.143,0,0,0-1,1.7c-.014,1.217.8,1.846.647,1.973-.032.143-1.3-.266-1.629-1.919a2.8,2.8,0,0,1,1.148-2.611,3.783,3.783,0,0,1,1.779-.767,11.982,11.982,0,0,1,1.875-.052c2.322.246,2.22-2.02,1.295-2.9-.9-1-1.758-1.549-1.611-1.7" fill="#fcf2fc" fill-rule="evenodd"/>
        <path id="Fill-163" d="M105.993,366.957c.072.116-.44.9-1.862,1.673a3.229,3.229,0,0,1-2.938.028,2.461,2.461,0,0,1-1.271-1.532,3.355,3.355,0,0,1,.195-2.007c.465-1.154.718-1.88.431-2.664a2.358,2.358,0,0,0-1.375-1.5c-1.2-.456-2.082.035-2.159-.144-.131-.083.67-1.061,2.411-.746a3.166,3.166,0,0,1,2.236,1.967,3.478,3.478,0,0,1,.2,1.852,9.832,9.832,0,0,1-.534,1.682c-.972,1.971,1.311,2.7,2.471,2.2,1.271-.434,2.085-.993,2.193-.809" fill="#fcf2fc" fill-rule="evenodd"/>
        <path id="Fill-165" d="M133.985,328.992c-.1.075-.835-.392-1.589-1.744a3.355,3.355,0,0,1-.139-2.854,2.281,2.281,0,0,1,1.336-1.3,2.854,2.854,0,0,1,1.826.109c1.059.406,1.726.62,2.427.312a2.238,2.238,0,0,0,1.306-1.4c.365-1.191-.117-2.023.046-2.1.068-.132.986.606.769,2.312a3.048,3.048,0,0,1-1.692,2.253,2.905,2.905,0,0,1-1.671.269,8.331,8.331,0,0,1-1.541-.448c-1.822-.866-2.4,1.384-1.9,2.493.441,1.218.98,1.983.817,2.1" fill="#fcf2fc" fill-rule="evenodd"/>
        <path id="Fill-167" d="M139.984,348.992c-.1.075-.835-.392-1.589-1.744a3.352,3.352,0,0,1-.137-2.854,2.26,2.26,0,0,1,1.336-1.294,2.815,2.815,0,0,1,1.824.108c1.059.4,1.728.621,2.426.31a2.231,2.231,0,0,0,1.306-1.4c.366-1.191-.114-2.023.046-2.1.068-.132.986.606.772,2.312a3.053,3.053,0,0,1-1.694,2.253,2.92,2.92,0,0,1-1.671.271,8.509,8.509,0,0,1-1.541-.45c-1.822-.866-2.395,1.384-1.895,2.493.44,1.218.982,1.985.817,2.1" fill="#fcf2fc" fill-rule="evenodd"/>
        <path id="Fill-169" d="M100.212,342c-.124-.017-.371-.909-.064-2.495a3.266,3.266,0,0,1,1.734-2.283,2.082,2.082,0,0,1,1.834-.015,3.16,3.16,0,0,1,1.3,1.419c.533,1.083.893,1.737,1.615,2.012a2.053,2.053,0,0,0,1.878-.116c1.04-.641,1.218-1.628,1.393-1.576.134-.049.343,1.188-.916,2.336a2.782,2.782,0,0,1-2.717.482,3.078,3.078,0,0,1-1.426-1.014,9.87,9.87,0,0,1-.865-1.473c-.805-1.991-2.68-.693-3.021.519-.455,1.255-.547,2.239-.741,2.2" fill="#fcf2fc" fill-rule="evenodd"/>
        <path id="Fill-171" d="M136.213,366c-.124-.017-.373-.909-.064-2.495a3.266,3.266,0,0,1,1.734-2.283,2.083,2.083,0,0,1,1.834-.015,3.162,3.162,0,0,1,1.3,1.419c.533,1.083.892,1.737,1.615,2.012a2.051,2.051,0,0,0,1.877-.116c1.041-.641,1.218-1.628,1.391-1.576.134-.049.346,1.188-.916,2.336a2.772,2.772,0,0,1-2.715.482,3.08,3.08,0,0,1-1.425-1.014,9.771,9.771,0,0,1-.865-1.473c-.8-1.993-2.681-.693-3.022.519-.455,1.255-.547,2.239-.741,2.2" fill="#fcf2fc" fill-rule="evenodd"/>
        <path id="Fill-173" d="M134.213,292c-.124-.015-.373-.91-.064-2.5a3.263,3.263,0,0,1,1.734-2.284,2.1,2.1,0,0,1,1.834-.015,3.153,3.153,0,0,1,1.3,1.422c.533,1.084.892,1.737,1.615,2.011a2.045,2.045,0,0,0,1.877-.114c1.041-.642,1.218-1.631,1.391-1.579.134-.05.346,1.191-.916,2.337a2.765,2.765,0,0,1-2.715.482,3.066,3.066,0,0,1-1.425-1.014,9.864,9.864,0,0,1-.865-1.472c-.8-1.993-2.681-.693-3.022.52-.455,1.255-.547,2.237-.741,2.2" fill="#fcf2fc" fill-rule="evenodd"/>
        <path id="Fill-175" d="M121.761,375.964c-.071.109-1.016.009-2.372-.847a2.965,2.965,0,0,1-1.389-2.41,2.123,2.123,0,0,1,.782-1.677,3.57,3.57,0,0,1,1.9-.665c1.25-.089,2.019-.181,2.59-.739a2.05,2.05,0,0,0,.711-1.752c-.152-1.182-1-1.7-.876-1.841.01-.14,1.265.117,1.793,1.683a2.715,2.715,0,0,1-.726,2.651,3.505,3.505,0,0,1-1.572.929,11.292,11.292,0,0,1-1.757.251c-2.222.009-1.818,2.191-.828,2.941.98.87,1.861,1.311,1.747,1.476" fill="#fcf2fc" fill-rule="evenodd"/>
        <path id="Fill-177" d="M79.189,303.005c.116-.06.857.452,1.532,1.8a2.851,2.851,0,0,1-.138,2.715,2.375,2.375,0,0,1-1.561,1.1,3.447,3.447,0,0,1-1.95-.281,3.7,3.7,0,0,0-2.573-.531A2.3,2.3,0,0,0,72.957,309c-.512,1.089-.079,1.924-.261,1.988-.084.116-1-.673-.593-2.267a3.016,3.016,0,0,1,2.041-1.962,3.525,3.525,0,0,1,1.82-.094,9.92,9.92,0,0,1,1.61.577c1.869.994,2.709-1.075,2.283-2.173-.352-1.194-.854-1.974-.667-2.065" fill="#fcf2fc" fill-rule="evenodd"/>
        <path id="Fill-179" d="M121.188,296.005c.119-.062.857.453,1.532,1.8a2.843,2.843,0,0,1-.138,2.715,2.367,2.367,0,0,1-1.561,1.093,3.439,3.439,0,0,1-1.95-.279,3.7,3.7,0,0,0-2.573-.533,2.3,2.3,0,0,0-1.541,1.2c-.51,1.089-.079,1.924-.259,1.988-.086.116-1-.675-.6-2.267a3.018,3.018,0,0,1,2.041-1.962,3.5,3.5,0,0,1,1.819-.094,9.809,9.809,0,0,1,1.61.577c1.871.995,2.709-1.075,2.283-2.175-.352-1.194-.855-1.972-.668-2.063" fill="#fcf2fc" fill-rule="evenodd"/>
        <path id="Fill-181" d="M96.47,338a8.925,8.925,0,0,1,.028-2.491c.105-1.593.3-3.9.571-6.742.537-5.685,1.385-13.542,2.378-22.187a23.653,23.653,0,0,0,.031-6.186,10.486,10.486,0,0,0-2.264-5.129,15.433,15.433,0,0,0-8.556-5.011,27.292,27.292,0,0,0-7.022-.575,15.327,15.327,0,0,1-2.635.055,8.268,8.268,0,0,1,2.591-.546,23.959,23.959,0,0,1,7.274.2,16.092,16.092,0,0,1,9.32,5.167,11.527,11.527,0,0,1,2.59,5.654,24.124,24.124,0,0,1,.006,6.5c-1,8.674-1.992,16.495-2.771,22.161-.391,2.832-.73,5.119-.995,6.7A8.9,8.9,0,0,1,96.47,338" fill="#ce5021" fill-rule="evenodd"/>
        <path id="Fill-183" d="M97,337.1c.036.338-8.218,1.461-18.434,2.513S60.036,341.24,60,340.9s8.216-1.461,18.436-2.511S96.964,336.759,97,337.1" fill="#ce5021" fill-rule="evenodd"/>
        <path id="Fill-185" d="M187.726,351.083c.319-2.192.257-4.278,1.444-6.211,2.366-3.851,5.723-2.885,8.974-1.189,3.313,1.726,6.431,2.761,10.033,1.148,5.624-2.519,8.265-11.292,2.9-15.42-1.738-1.337-3.451.87-3.216,2.558.324,2.362,1.456,4.96-.5,6.988-2.614,2.711-5.679.435-8.288-.782a10.5,10.5,0,0,0-8.719-.389c-5,2.092-8.634,9.111-4.661,13.852a1.208,1.208,0,0,0,2.035-.555" fill="#ff7643" fill-rule="evenodd"/>
        <path id="Fill-187" d="M224.978,270.754c-4.075,3.819-5.623,9.762-1.737,14.35a11.589,11.589,0,0,0,15.305,1.792c11.031-8.309-.467-23.644-12.37-20.47a1.924,1.924,0,0,0,.524,3.774c3.479.194,7.205.323,9.984,2.7a6.947,6.947,0,0,1,.6,9.823c-6.489,7.79-17.759-3.68-10.943-10.643.858-.876-.467-2.174-1.367-1.331" fill="#ff7081" fill-rule="evenodd"/>
        <path id="Fill-189" d="M61.978,263.754c-4.073,3.819-5.624,9.762-1.737,14.35a11.593,11.593,0,0,0,15.3,1.794c11.032-8.311-.467-23.648-12.37-20.472A1.924,1.924,0,0,0,63.7,263.2c3.48.195,7.205.324,9.987,2.7a6.95,6.95,0,0,1,.6,9.823c-6.49,7.789-17.76-3.68-10.944-10.643.858-.875-.467-2.174-1.366-1.331" fill="#7cabff" fill-rule="evenodd"/>
        <path id="Fill-191" d="M7.062,357.038c2.59,9.926,5.441,19.735,8.4,29.549a2.972,2.972,0,0,0,4.843,1.722c7.727-5.416,15.456-10.743,22.774-16.742a2.908,2.908,0,0,0-.29-4.468c-8.572-6.073-20.148-15.035-31.023-15.1-2.767-.015-4.7,4-1.9,5.673,4.39,2.612,9.649,3.543,14.338,5.557A77.694,77.694,0,0,1,39.758,371.8q.158-2.445.318-4.884c-8.179,5.2-15.882,11.027-23.662,16.838l4.594.947C17.688,375,14.281,365.382,10.6,355.832c-.778-2.018-4.093-.911-3.54,1.206" fill="#ff7081" fill-rule="evenodd"/>
        <path id="Fill-193" d="M236.95,315.7a136.436,136.436,0,0,0,21.164,1.249c2.561-.084,2.468-3.289,0-3.517a133.679,133.679,0,0,0-20.815-.057c-1.368.088-1.913,2.126-.349,2.325" fill="#fbc580" fill-rule="evenodd"/>
        <path id="Fill-195" d="M4.95,315.7a136.426,136.426,0,0,0,21.164,1.249c2.563-.084,2.467-3.289,0-3.517A133.669,133.669,0,0,0,5.3,313.378c-1.369.088-1.913,2.126-.35,2.325" fill="#fbc580" fill-rule="evenodd"/>
        <path id="Fill-197" d="M50.882,304.4c-.114-.1-.229-.2-.343-.3a3.848,3.848,0,0,0-5.448,5.436l.305.342a3.876,3.876,0,0,0,5.486-5.476" fill="#ff7643" fill-rule="evenodd"/>
        <path id="Fill-199" d="M148.482,338c-.258-.017-.5-6.017-1-13.454s-.28-13.565.038-13.546c.258.015.494,6.014,1,13.454s.28,13.565-.038,13.546" fill="#ce5021" fill-rule="evenodd"/>
        <path id="Fill-201" d="M189,281.118,207.884,276,209,279.3,189.951,285Z" fill="#ff7643" fill-rule="evenodd"/>
        <path id="Fill-203" d="M200,280a2,2,0,1,1-2-2,2,2,0,0,1,2,2" fill="#e6e2eb" fill-rule="evenodd"/>
        <path id="Fill-205" d="M125.806,229.96c-.238.144-.724-.108-1.2-.621s-.67-1.144-.414-1.3c.236-.144.724.108,1.2.621s.668,1.144.414,1.3" fill="#241352" fill-rule="evenodd"/>
        <path id="Fill-207" d="M110.806,231.96c-.238.144-.724-.108-1.2-.621s-.67-1.144-.414-1.3c.236-.144.724.108,1.194.621s.67,1.144.416,1.3" fill="#241352" fill-rule="evenodd"/>
        <path id="Fill-209" d="M94,154.741V191.9H69.4L68.617,206,54.161,191.089H0L4.77,152Z" fill="#ff7643" fill-rule="evenodd"/>
        <path id="Fill-211" d="M83.8,166.831c-23.769-.392-47.694-.53-71.461-.118-.452.008-.452.566,0,.574,23.767.412,47.692.274,71.461-.118.266,0,.266-.334,0-.338" fill="#e6e2eb" fill-rule="evenodd"/>
        <path id="Fill-213" d="M83.8,173.831c-23.769-.392-47.694-.53-71.461-.118-.452.008-.452.566,0,.574,23.767.412,47.692.274,71.461-.118.266,0,.266-.334,0-.338" fill="#e6e2eb" fill-rule="evenodd"/>
        <path id="Fill-215" d="M82.8,180.831c-14.411-.374-29.056-.486-43.467-.118-.448.012-.448.562,0,.574,14.411.37,29.056.256,43.467-.118a.171.171,0,1,0,0-.338" fill="#e6e2eb" fill-rule="evenodd"/>
      </g>
    </g>
  </g>
</svg>
