<svg xmlns="http://www.w3.org/2000/svg" width="329.768" height="302.989" viewBox="0 0 329.768 302.989">
  <g id="Page-1" transform="translate(0 -0.011)">
    <g id="_02" data-name="02" transform="translate(-42 -106)">
      <g id="Group-261" transform="translate(42 106)">
        <g id="Group-3">
          <path id="Fill-1" d="M83.778,282.571C43.383,268.987,8.345,235.228,1.17,193.315S20.5,104.156,62.144,95.07c19.691-4.3,40.946-.459,59.758-7.674,35.481-13.607,47.539-59.644,80.32-78.845C233.8-9.946,277.1,3.395,300.634,31.392s30.392,66.628,28.951,103.13c-2.119,53.628-24.967,111.464-73.738,134.14-41.1,19.108-127.99,24.524-172.069,13.909" fill="#ffeadb" fill-rule="evenodd"/>
        </g>
        <path id="Fill-4" d="M35,273.323c8.9,14.737,27.237,20.269,43.949,19.918s33.05-5.332,49.736-6.342c26.445-1.6,52.361,6.781,78.356,12.088s54.41,7.2,77.594-6.152c5.676-3.267,11.153-7.73,13.451-14.049s.221-14.7-5.76-17.314a19.32,19.32,0,0,0-7.41-1.123q-83.539-1.613-167.079-3.228c-28.349-.548-59.6-.045-80.868,19.494" fill="#f8d5bd" fill-rule="evenodd"/>
        <path id="Fill-133" d="M271.435,101.927c-3.517,3.155-4.856,8.066-1.5,11.856a10.343,10.343,0,0,0,13.218,1.481c9.528-6.866-.4-19.534-10.683-16.912a1.584,1.584,0,0,0,.452,3.119c3.005.159,6.223.268,8.625,2.235a5.566,5.566,0,0,1,.52,8.114c-5.6,6.433-15.336-3.04-9.452-8.791.744-.726-.4-1.8-1.18-1.1" fill="#7cabff" fill-rule="evenodd"/>
        <path id="Fill-135" d="M47.751,70.949a11.441,11.441,0,0,0-10.8.906,11.2,11.2,0,0,0-4.9,9.581c.12,2.92,1.3,6.243-.579,8.5-1.45,1.742-4.038,1.906-6.115,2.838a8.471,8.471,0,0,0-4.121,10.849c.971,2.115,2.9,4.062,2.531,6.356a5.145,5.145,0,0,1-2.746,3.41c-1.32.746-2.8,1.173-4.162,1.833A14.735,14.735,0,0,0,9,128.714a18.862,18.862,0,0,0,7.559,14.053,27,27,0,0,0,15.476,5.212c5.547.205,11.349-1.082,15.58-4.636,3.178-2.67,5.251-6.409,6.78-10.245a50.8,50.8,0,0,0,3.417-23.071c-.7-8.108-3.345-15.966-3.924-24.082a52.8,52.8,0,0,0-.767-8.134,10.328,10.328,0,0,0-4.34-6.7" fill="#132b57" fill-rule="evenodd"/>
        <path id="Fill-137" d="M47.925,70.755A24.28,24.28,0,0,1,64.212,57.517a17.254,17.254,0,0,1,12.8,1.673c3.78,2.321,6.391,6.848,5.816,11.326-.356,2.768-1.821,5.238-2.751,7.863s-1.235,5.828.494,7.986c1.55,1.938,4.209,2.416,6.327,3.668a9.843,9.843,0,0,1-.973,17.353,11.509,11.509,0,0,1,8.015,4.891,12.1,12.1,0,0,1,1.774,9.391c-1.048,4.584-4.682,8.091-8.59,10.569a37.2,37.2,0,0,1-18.1,5.731c-6.769.315-14.266-1.739-17.95-7.572-2.416-3.829-2.785-8.607-3.056-13.161-.818-13.744-1.379-27.5-1.939-41.261a24.422,24.422,0,0,1,.331-6.614" fill="#132b57" fill-rule="evenodd"/>
        <path id="Fill-139" d="M69,133.7l62.182,22.483-5.936-24.22L141.417,128s17.394,47.347,5.314,48.614c-21.149,2.22-53.148-5.858-53.148-5.858Z" fill="#ffafa7" fill-rule="evenodd"/>
        <path id="Fill-141" d="M65,237.911s74-81.086,123.953-63.384S260,274.818,260,274.818l-39.789-.648s-31.423-62.376-46.756-59.96S110.763,276,110.763,276Z" fill="#ff7643" fill-rule="evenodd"/>
        <path id="Fill-143" d="M87.9,189.376,91,236.587c-16.077,19.538-72.047-5.723-72.047-5.723L18.3,211.125,17,164.111c1.289-18.722,18.882-27.91,18.882-27.91,7.273-3.585,18.365-5.619,28.357-5.129,10.432.508,13.01,5.446,17.307,14.855,3.472,7.6,12.894,19.985,6.357,43.449" fill="#7cabff" fill-rule="evenodd"/>
        <path id="Fill-145" d="M30.338,239.114s-8.522,35.823,17.452,41.47,121.5-7.563,146.386-5.3,95.643,6.521,95.643,6.521L295,239.26s-110.118-5.452-122.563-2.255-142.1,2.109-142.1,2.109" fill="#ff7643" fill-rule="evenodd"/>
        <path id="Fill-147" d="M41.754,179s-7.838,46.2,3.215,45.058c36.357-3.739,58-4.243,58-4.243L109,232.328c.14,2.132-68.85,21.884-79.936,15.354-7.827-4.61-20.3-17.031-14.636-54.149l1.337-12.442Z" fill="#ffafa7" fill-rule="evenodd"/>
        <path id="Fill-149" d="M75.074,245,75,241.852l45.508-6.55,12.079-43.056L183,191l-13.6,46.6Z" fill="#132b57" fill-rule="evenodd"/>
        <path id="Fill-151" d="M157,214.9a4,4,0,1,1-4.1-3.9,4,4,0,0,1,4.1,3.9" fill="#fff" fill-rule="evenodd"/>
        <path id="Fill-153" d="M158,213.366A5.5,5.5,0,1,1,152.367,208,5.5,5.5,0,0,1,158,213.366" fill="#fff" fill-rule="evenodd"/>
        <path id="Fill-155" d="M22.3,148.413S13.881,156.478,12,187l32.57-3.6S50,131.42,22.3,148.413" fill="#7cabff" fill-rule="evenodd"/>
        <path id="Fill-157" d="M262,57.573s11.593,26.778,14.825,25.374S310,62.438,310,62.438s-12.272-23.974-14.825-25.374S262,57.573,262,57.573" fill="#ff7643" fill-rule="evenodd"/>
        <path id="Fill-159" d="M294.984,39c.145.051-.7,2.559-2.192,6.566s-3.619,9.522-6.034,15.587c-.061.149-.122.3-.176.438l-.163.407-.457-.07c-6.668-1.026-12.669-2.008-17-2.77s-6.988-1.3-6.962-1.445,2.726.137,7.088.708,10.386,1.435,17.056,2.454l-.618.34c.054-.139.113-.289.173-.438,2.418-6.065,4.667-11.536,6.347-15.477s2.793-6.354,2.938-6.3" fill="#ce5021" fill-rule="evenodd"/>
        <path id="Fill-161" d="M273.068,80c-.35-.065.682-4.159,2.3-9.141s3.219-8.949,3.561-8.857-.689,4.186-2.3,9.143-3.211,8.919-3.561,8.855" fill="#ce5021" fill-rule="evenodd"/>
        <path id="Fill-163" d="M308,56.934c-.05.2-4.344-.06-9.591-.577s-9.458-1.093-9.409-1.29,4.344.06,9.593.575,9.456,1.094,9.407,1.292" fill="#ce5021" fill-rule="evenodd"/>
        <path id="Fill-165" d="M39.526,85.408l.729,9.874s-8.167,1.133-5.837,8.791,7.913,4.306,7.913,4.306,1.4,19.624,20.951,13.4c15.561-4.951,14.609-25.668,12.634-43.33A11.551,11.551,0,0,0,62.279,68.221L50.523,70.577a13.967,13.967,0,0,0-11,14.832" fill="#ffafa7" fill-rule="evenodd"/>
        <path id="Fill-167" d="M40,102l5.343,29.382a11.437,11.437,0,0,0,13.882,9.293,11.789,11.789,0,0,0,8.6-13.525l-2.9-16.841Z" fill="#ffafa7" fill-rule="evenodd"/>
        <path id="Fill-169" d="M62.021,103.212c.056-.054.176.25.444.291s.661-.326.758-1.094a13.305,13.305,0,0,0-.021-2.921c-.069-1.245-.137-2.478-.208-3.767-.251-5.349-.267-9.7-.034-9.721s.624,4.3.875,9.65c.049,1.293.1,2.525.142,3.773a11.748,11.748,0,0,1-.183,3.211c-.194.978-.946,1.583-1.415,1.293-.449-.305-.39-.722-.359-.715" fill="#241352" fill-rule="evenodd"/>
        <path id="Fill-171" d="M67.993,118.03c.09.136-.7,1.264-2.343,2.48A12.676,12.676,0,0,1,58.577,123a12.424,12.424,0,0,1-7.15-2.1c-1.677-1.125-2.505-2.208-2.422-2.35.147-.41,4.035,3.151,9.547,2.975,5.512-.124,9.282-3.894,9.44-3.492" fill="#241352" fill-rule="evenodd"/>
        <path id="Fill-173" d="M63.976,107.737c.108.085-.139.76-.991,1.411a4.26,4.26,0,0,1-3.924.624,4.788,4.788,0,0,1-2.855-3c-.342-1.07-.184-1.777-.051-1.775.167-.016.3.608.754,1.414a4.873,4.873,0,0,0,2.487,2.219,4.377,4.377,0,0,0,3.21-.224c.8-.366,1.243-.789,1.369-.672" fill="#241352" fill-rule="evenodd"/>
        <path id="Fill-175" d="M39.974,104.739c0,.153-.36.423-1,.131a1.917,1.917,0,0,1-.885-1.313,3.01,3.01,0,0,1-.039-1.263A1.583,1.583,0,0,1,38.7,101.2c.418-.265,1-.109,1.274.607l-.717.58c-.469-1.845-.7-3.259-.521-3.38s.7,1.091,1.26,2.871l-.717.579a.2.2,0,0,0-.28-.03c-.157.073-.229.365-.175.751a1.557,1.557,0,0,0,.4.852c.388.4.756.514.746.708" fill="#ff7643" fill-rule="evenodd"/>
        <path id="Fill-177" d="M69.323,90c-.28.045-.652-.367-.832-.917S68.4,88.048,68.677,88s.652.367.83.917.1,1.032-.184,1.076" fill="#241352" fill-rule="evenodd"/>
        <path id="Fill-179" d="M51.4,91c-.278.054-.68-.349-.9-.9S50.326,89.059,50.6,89s.678.349.9.9.174,1.037-.1,1.091" fill="#241352" fill-rule="evenodd"/>
        <path id="Fill-181" d="M53.991,86.785c-.095.282-.979.272-1.957.526-.987.224-1.752.636-1.983.432-.239-.172.373-1.12,1.7-1.44s2.358.222,2.242.482" fill="#241352" fill-rule="evenodd"/>
        <path id="Fill-183" d="M69.989,82.173c-.111.272-.971.138-1.979.242-1.009.08-1.836.37-1.988.122-.164-.222.618-1.044,1.9-1.158s2.189.546,2.065.794" fill="#241352" fill-rule="evenodd"/>
        <path id="Fill-185" d="M39.209,95.474c5.425-5.453,7.019-14.537,8.491-22.2a18.519,18.519,0,0,0,17.727,2.381,28.778,28.778,0,0,0,6.314,5.686,2.761,2.761,0,0,0,2.232.639c.91-.282,1.316-1.359,1.532-2.315a16.926,16.926,0,0,0-.314-9.278,11.042,11.042,0,0,0-6.041-6.675c-3.033-1.211-6.446-.685-9.6.156a52.442,52.442,0,0,0-13.546,5.772c-4.152,2.506-8.138,5.825-9.9,10.439S34.354,93.668,38.6,96" fill="#132b57" fill-rule="evenodd"/>
        <path id="Fill-193" d="M40.185,120c-.292-.007-.454-3.137-.638-6.982s-.312-6.978-.022-7.018.882,3.064,1.062,6.959-.12,7.05-.4,7.041" fill="#ff7643" fill-rule="evenodd"/>
        <path id="Fill-195" d="M73.463,132.2C68.3,130.1,108,145.193,108,145.193L103.972,173l-15.1-5.072Z" fill="#7cabff" fill-rule="evenodd"/>
        <path id="Fill-197" d="M47.75,69.669a11.325,11.325,0,0,0,1.024-7.438C48.35,60.163,47.086,58.113,45.36,58a3.414,3.414,0,0,0-2.651,1.351,8.166,8.166,0,0,0-1.052,8.226c1.186,2.611,3.9,4,6.235,3.188" fill="#132b57" fill-rule="evenodd"/>
        <path id="Fill-199" d="M293.392,248.5s13.066-19.1,11.473-11.868S290,276,290,276Z" fill="#ce5021" fill-rule="evenodd"/>
        <path id="Fill-201" d="M99.351,219.229s17.893-5.735,17.278-3.848-3.658,1.955-6.7,5c0,0,20,.22,19.039,1.9s-13.981,2.107-14.06,2.393,14.241.645,13.92,2.2-13.629,1.178-13.629,1.178,12.334,1.341,12.081,3.019-11.624.47-11.624.47,9.518,1.111,9.269,2.631c-.15.927-27.865,1.136-27.923,1.817-.031.358,2.351-16.765,2.351-16.765" fill="#ffafa7" fill-rule="evenodd"/>
        <path id="Fill-203" d="M126.474,132s-11.238-14.577-9.235-14.569,3.049,2.751,6.94,4.629c0,0-6.209-18.228-4.289-17.846s6.509,12.083,6.81,12.07-3.958-13.122-2.362-13.282,5.5,12.033,5.5,12.033-2.678-11.592-.989-11.852,4.183,10.42,4.183,10.42-1.992-8.968-.455-9.188c.935-.133,9.419,22.113,9.419,22.113-.223,0-15.526,5.472-15.526,5.472" fill="#ffafa7" fill-rule="evenodd"/>
        <path id="Fill-205" d="M27.524,174c.1-.011.457.72.476,2.179a3.167,3.167,0,0,1-1.024,2.374,1.67,1.67,0,0,1-1.486.4,2.513,2.513,0,0,1-1.292-.968c-.618-.842-1.02-1.338-1.653-1.425a1.643,1.643,0,0,0-1.506.5c-.737.783-.714,1.689-.864,1.68-.1.071-.482-.971.347-2.246a2.308,2.308,0,0,1,2.126-1,2.369,2.369,0,0,1,1.329.589,8.182,8.182,0,0,1,.951,1.109c.995,1.58,2.3.038,2.368-1.1.157-1.2.065-2.08.229-2.094" fill="#fcf2fc" fill-rule="evenodd"/>
        <path id="Fill-207" d="M36.008,165.114c-.069-.1.317-.859,1.476-1.662a2.563,2.563,0,0,1,2.483-.227,2.161,2.161,0,0,1,1.169,1.315,3.345,3.345,0,0,1-.042,1.855,3.586,3.586,0,0,0-.2,2.471,2.059,2.059,0,0,0,1.257,1.278c1.045.336,1.759-.176,1.837-.013.115.062-.5,1.016-2,.849a2.713,2.713,0,0,1-2.013-1.648,3.4,3.4,0,0,1-.283-1.686,9.925,9.925,0,0,1,.346-1.578c.7-1.873-1.274-2.385-2.227-1.845-1.048.484-1.7,1.053-1.805.891" fill="#fcf2fc" fill-rule="evenodd"/>
        <path id="Fill-209" d="M36.008,144.115c-.069-.1.317-.859,1.473-1.662a2.56,2.56,0,0,1,2.485-.227,2.153,2.153,0,0,1,1.167,1.315,3.327,3.327,0,0,1-.04,1.855,3.566,3.566,0,0,0-.2,2.468,2.064,2.064,0,0,0,1.255,1.281c1.048.335,1.761-.176,1.839-.014.115.062-.5,1.016-2,.849a2.719,2.719,0,0,1-2.011-1.648,3.42,3.42,0,0,1-.285-1.686,9.877,9.877,0,0,1,.348-1.577c.7-1.873-1.274-2.385-2.227-1.848-1.05.487-1.7,1.056-1.805.894" fill="#fcf2fc" fill-rule="evenodd"/>
        <path id="Fill-211" d="M57.5,171.99c-.1.072-.923-.239-1.875-1.278a2.312,2.312,0,0,1-.486-2.348,2.094,2.094,0,0,1,1.249-1.212,3.78,3.78,0,0,1,1.931-.1,4.072,4.072,0,0,0,2.588.006,1.99,1.99,0,0,0,1.206-1.294c.244-1.023-.36-1.662-.2-1.749.056-.114,1.109.4,1.083,1.838a2.533,2.533,0,0,1-1.51,2.039,3.751,3.751,0,0,1-1.723.4,11.307,11.307,0,0,1-1.675-.211,1.448,1.448,0,0,0-1.7,2.258c.609.963,1.266,1.543,1.109,1.653" fill="#fcf2fc" fill-rule="evenodd"/>
        <path id="Fill-213" d="M71.994,193.183c.064.1-.391.8-1.655,1.49a2.873,2.873,0,0,1-2.612.022,2.171,2.171,0,0,1-1.13-1.362,2.977,2.977,0,0,1,.176-1.783,3.241,3.241,0,0,0,.382-2.368,2.1,2.1,0,0,0-1.225-1.336c-1.068-.4-1.849.034-1.919-.128-.117-.071.6-.943,2.146-.663a2.816,2.816,0,0,1,1.985,1.748,3.078,3.078,0,0,1,.18,1.649,8.9,8.9,0,0,1-.475,1.494c-.864,1.75,1.165,2.4,2.2,1.956,1.128-.385,1.851-.883,1.948-.719" fill="#fcf2fc" fill-rule="evenodd"/>
        <path id="Fill-215" d="M88.994,159.184c.064.1-.391.8-1.655,1.49a2.882,2.882,0,0,1-2.612.022,2.177,2.177,0,0,1-1.13-1.36,2.984,2.984,0,0,1,.176-1.786,3.238,3.238,0,0,0,.382-2.368,2.107,2.107,0,0,0-1.225-1.336c-1.068-.4-1.849.032-1.919-.127-.117-.072.6-.944,2.146-.664a2.816,2.816,0,0,1,1.985,1.748,3.058,3.058,0,0,1,.18,1.649,8.945,8.945,0,0,1-.475,1.5c-.864,1.752,1.165,2.4,2.2,1.956,1.128-.386,1.851-.883,1.948-.719" fill="#fcf2fc" fill-rule="evenodd"/>
        <path id="Fill-217" d="M98.953,155.021c.077-.091.929.1,2.06,1.021a2.673,2.673,0,0,1,.962,2.354,2.019,2.019,0,0,1-.931,1.453,3.334,3.334,0,0,1-1.819.411,3.613,3.613,0,0,0-2.465.408,1.95,1.95,0,0,0-.873,1.533c-.012,1.1.7,1.661.566,1.775-.028.129-1.142-.238-1.425-1.727a2.56,2.56,0,0,1,1-2.352,3.3,3.3,0,0,1,1.557-.688,10.435,10.435,0,0,1,1.641-.048c2.031.223,1.942-1.816,1.132-2.608-.786-.9-1.535-1.393-1.409-1.532" fill="#fcf2fc" fill-rule="evenodd"/>
        <path id="Fill-219" d="M52.994,211.184c.064.1-.391.8-1.655,1.49a2.882,2.882,0,0,1-2.611.022,2.181,2.181,0,0,1-1.13-1.362,3,3,0,0,1,.174-1.784,3.232,3.232,0,0,0,.385-2.368,2.107,2.107,0,0,0-1.224-1.336c-1.071-.4-1.851.034-1.919-.127-.116-.072.6-.944,2.146-.664a2.816,2.816,0,0,1,1.985,1.748,3.1,3.1,0,0,1,.18,1.649,8.819,8.819,0,0,1-.475,1.492c-.864,1.753,1.165,2.4,2.2,1.959,1.13-.386,1.853-.883,1.95-.719" fill="#fcf2fc" fill-rule="evenodd"/>
        <path id="Fill-221" d="M77.985,177.993c-.1.068-.836-.349-1.589-1.549a2.686,2.686,0,0,1-.139-2.538,2.18,2.18,0,0,1,1.336-1.151,3.176,3.176,0,0,1,1.826.1,3.424,3.424,0,0,0,2.427.276,2.092,2.092,0,0,0,1.306-1.243c.365-1.056-.117-1.8.046-1.871.068-.116.986.541.769,2.057a2.762,2.762,0,0,1-1.692,2,3.241,3.241,0,0,1-1.671.242,9.422,9.422,0,0,1-1.541-.4c-1.822-.77-2.395,1.228-1.895,2.214.441,1.082.979,1.764.817,1.865" fill="#fcf2fc" fill-rule="evenodd"/>
        <path id="Fill-223" d="M82.984,194.993c-.1.067-.836-.348-1.589-1.55a2.685,2.685,0,0,1-.137-2.537,2.165,2.165,0,0,1,1.336-1.151,3.151,3.151,0,0,1,1.824.1,3.419,3.419,0,0,0,2.427.276,2.1,2.1,0,0,0,1.306-1.242c.365-1.059-.114-1.8.046-1.872.068-.116.986.539.772,2.055a2.771,2.771,0,0,1-1.694,2.005,3.248,3.248,0,0,1-1.671.239,9.488,9.488,0,0,1-1.541-.4c-1.822-.77-2.395,1.228-1.895,2.214.441,1.082.982,1.765.817,1.865" fill="#fcf2fc" fill-rule="evenodd"/>
        <path id="Fill-225" d="M47.191,189c-.112-.017-.334-.909-.058-2.495a3.258,3.258,0,0,1,1.561-2.283,1.707,1.707,0,0,1,1.65-.015,3.057,3.057,0,0,1,1.167,1.419c.48,1.083.8,1.737,1.453,2.012a1.679,1.679,0,0,0,1.69-.116c.936-.641,1.1-1.628,1.254-1.576.12-.049.309,1.191-.824,2.336a2.308,2.308,0,0,1-2.445.482,2.781,2.781,0,0,1-1.283-1.014,10.074,10.074,0,0,1-.778-1.473c-.724-1.991-2.412-.691-2.72.519-.409,1.255-.492,2.239-.666,2.2" fill="#fcf2fc" fill-rule="evenodd"/>
        <path id="Fill-227" d="M79.192,211c-.112-.017-.336-.909-.058-2.495a3.252,3.252,0,0,1,1.561-2.283,1.707,1.707,0,0,1,1.65-.015,3.069,3.069,0,0,1,1.167,1.419c.48,1.083.8,1.737,1.453,2.012a1.68,1.68,0,0,0,1.69-.116c.936-.641,1.1-1.628,1.252-1.576.12-.049.311,1.191-.824,2.336a2.306,2.306,0,0,1-2.444.482,2.781,2.781,0,0,1-1.283-1.014,10.066,10.066,0,0,1-.779-1.473c-.725-1.991-2.415-.691-2.72.522-.409,1.252-.492,2.236-.666,2.2" fill="#fcf2fc" fill-rule="evenodd"/>
        <path id="Fill-229" d="M79.192,144c-.112-.017-.336-.912-.058-2.495a3.246,3.246,0,0,1,1.561-2.283,1.707,1.707,0,0,1,1.65-.015,3.067,3.067,0,0,1,1.167,1.416c.48,1.086.8,1.74,1.453,2.016a1.69,1.69,0,0,0,1.69-.117c.936-.641,1.1-1.628,1.252-1.576.12-.052.311,1.188-.824,2.334a2.306,2.306,0,0,1-2.444.484,2.807,2.807,0,0,1-1.283-1.014,10.272,10.272,0,0,1-.779-1.473c-.725-1.993-2.415-.693-2.72.519-.409,1.255-.492,2.237-.666,2.2" fill="#fcf2fc" fill-rule="evenodd"/>
        <path id="Fill-231" d="M67.761,218.968c-.071.1-1.016.007-2.372-.763A2.644,2.644,0,0,1,64,216.035a1.834,1.834,0,0,1,.785-1.508,3.828,3.828,0,0,1,1.894-.6,4.156,4.156,0,0,0,2.592-.665,1.757,1.757,0,0,0,.709-1.576c-.152-1.063-1-1.532-.876-1.657.01-.126,1.265.1,1.793,1.515a2.273,2.273,0,0,1-.726,2.385,3.545,3.545,0,0,1-1.572.836,12.076,12.076,0,0,1-1.757.226c-2.222.008-1.818,1.972-.828,2.647.98.784,1.861,1.179,1.747,1.329" fill="#fcf2fc" fill-rule="evenodd"/>
        <path id="Fill-233" d="M30.39,153.005c.1-.062.762.453,1.361,1.8a3.165,3.165,0,0,1-.123,2.715,2.14,2.14,0,0,1-1.388,1.1,2.768,2.768,0,0,1-1.733-.281c-.976-.487-1.594-.757-2.287-.533a2.108,2.108,0,0,0-1.37,1.2c-.455,1.089-.07,1.924-.232,1.988-.074.116-.886-.675-.528-2.267a2.87,2.87,0,0,1,1.814-1.964,2.818,2.818,0,0,1,1.618-.092,8.2,8.2,0,0,1,1.431.577c1.661,1,2.408-1.075,2.029-2.173-.313-1.2-.759-1.974-.593-2.065" fill="#fcf2fc" fill-rule="evenodd"/>
        <path id="Fill-235" d="M66.39,148.005c.1-.062.762.453,1.361,1.8a3.165,3.165,0,0,1-.123,2.715,2.14,2.14,0,0,1-1.388,1.1,2.775,2.775,0,0,1-1.733-.281c-.976-.487-1.593-.757-2.287-.533a2.108,2.108,0,0,0-1.37,1.2c-.455,1.089-.07,1.924-.232,1.988-.074.116-.886-.673-.528-2.267a2.864,2.864,0,0,1,1.815-1.962,2.8,2.8,0,0,1,1.618-.094,8.2,8.2,0,0,1,1.431.577c1.661.994,2.408-1.075,2.029-2.173-.313-1.2-.759-1.974-.593-2.065" fill="#fcf2fc" fill-rule="evenodd"/>
        <path id="Fill-237" d="M44.088,187a9.1,9.1,0,0,1,.024-2.338c.091-1.5.26-3.662.493-6.332.464-5.337,1.2-12.71,2.056-20.828a24.23,24.23,0,0,0,.024-5.807,10.28,10.28,0,0,0-1.956-4.815,13.14,13.14,0,0,0-7.39-4.7,21.9,21.9,0,0,0-6.065-.54A12.314,12.314,0,0,1,29,141.69a6.527,6.527,0,0,1,2.238-.513,19.038,19.038,0,0,1,6.282.184,13.608,13.608,0,0,1,8.049,4.851,11.259,11.259,0,0,1,2.237,5.306,24.591,24.591,0,0,1,0,6.1c-.861,8.143-1.72,15.485-2.393,20.8-.337,2.658-.63,4.808-.859,6.288A9,9,0,0,1,44.088,187" fill="#4d85e9" fill-rule="evenodd"/>
        <path id="Fill-239" d="M47,185.048c.033.168-7.55.731-16.939,1.256s-17.028.817-17.061.648,7.55-.731,16.941-1.256,17.025-.817,17.059-.648" fill="#4d85e9" fill-rule="evenodd"/>
        <path id="Fill-241" d="M89.7,180c-.358-.034,1.373-6.5-.6-14.211-1.853-7.74-6.388-12.579-6.086-12.783.084-.088,1.33.97,2.875,3.115a28.018,28.018,0,0,1,4.269,9.4,28.39,28.39,0,0,1,.622,10.34c-.36,2.641-.961,4.181-1.076,4.144" fill="#4d85e9" fill-rule="evenodd"/>
        <path id="Fill-243" d="M176.233,180.243c.276-1.812.223-3.535,1.252-5.132,2.049-3.184,4.968-2.392,7.795-.992,2.87,1.421,5.57,2.274,8.691.946,4.916-2.1,7.093-9.258,2.518-12.719-1.484-1.122-3.011.726-2.79,2.111.311,1.952,1.276,4.106-.423,5.783-2.271,2.244-4.937.365-7.207-.645a9.512,9.512,0,0,0-7.554-.327c-4.341,1.723-7.5,7.516-4.048,11.433a1.069,1.069,0,0,0,1.766-.458" fill="#ce5021" fill-rule="evenodd"/>
        <path id="Fill-245" d="M189.009,95.558c.449,3.038,3.462,9.45,6.639,10.334,1.685.47,2.937-.692,4.246-1.636,2.384-1.719,4.739-3.477,7.1-5.236a2.2,2.2,0,0,0,.723-2.877q-3.132-5.043-6.261-10.083a1.981,1.981,0,0,0-2.75-.754,84.423,84.423,0,0,0-7.778,5.95c-1.627,1.529.451,4.133,2.277,3.089a80.214,80.214,0,0,0,7.531-5.406l-2.752-.754,6.259,10.081q.363-1.438.722-2.879c-1.415,1.055-2.835,2.1-4.246,3.163-.708.531-3.6,3.3-4.372,3.115-.912-.214-2.384-2.965-2.96-3.683a16.649,16.649,0,0,0-3.234-3.344c-.622-.446-1.234.288-1.142.92" fill="#fbc580" fill-rule="evenodd"/>
        <path id="Fill-247" d="M159.435,126.927c-3.517,3.155-4.856,8.066-1.5,11.854a10.34,10.34,0,0,0,13.218,1.483c9.528-6.866-.4-19.534-10.683-16.912a1.584,1.584,0,0,0,.452,3.119c3.005.159,6.223.268,8.623,2.233a5.569,5.569,0,0,1,.522,8.116c-5.6,6.434-15.338-3.04-9.452-8.791.742-.726-.4-1.8-1.18-1.1" fill="#7cabff" fill-rule="evenodd"/>
        <path id="Fill-249" d="M237.03,156.7c-1.133,6.295-2.1,12.6-3,18.939a1.87,1.87,0,0,0,2.178,2.331c5.563-.866,11.11-1.664,16.6-2.962a1.818,1.818,0,0,0,.983-2.587c-3.111-5.859-7.073-14.021-12.927-17.217a1.888,1.888,0,0,0-2.473,2.646c1.741,2.682,4.319,4.693,6.347,7.149a50.335,50.335,0,0,1,6.211,9.2q.709-1.326,1.42-2.649c-5.749.607-11.409,1.714-17.1,2.767q1.124.913,2.242,1.828c.685-6.371,1.3-12.73,1.743-19.123a1.128,1.128,0,0,0-2.222-.322" fill="#ff7081" fill-rule="evenodd"/>
        <path id="Fill-251" d="M209.753,145.175A90.785,90.785,0,0,0,213,126.686c.1-1.906-3.66-2.381-4.092-.458A89.675,89.675,0,0,0,207,144.868c-.01,1.278,2.4,1.6,2.753.307" fill="#ff957e" fill-rule="evenodd"/>
        <path id="Fill-253" d="M276.792,144.378a76.4,76.4,0,0,0,17.637,1.562c2.134-.1,2.054-4.109,0-4.4a74.545,74.545,0,0,0-17.346-.072c-1.141.111-1.594,2.661-.291,2.907" fill="#fbc580" fill-rule="evenodd"/>
        <path id="Fill-255" d="M227.542,67.978a102.549,102.549,0,0,0,16.378,6.949c1.759.541,2.953-2.073,1.271-2.877A103.353,103.353,0,0,0,228.4,66.042c-1.2-.329-1.975,1.359-.855,1.936" fill="#ff7081" fill-rule="evenodd"/>
        <path id="Fill-257" d="M244.883,116.4c-.115-.1-.23-.2-.345-.3a3.847,3.847,0,1,0-5.447,5.434l.3.343a3.875,3.875,0,0,0,5.487-5.473" fill="#ff7643" fill-rule="evenodd"/>
        <path id="Fill-259" d="M109.617,5.593A22.163,22.163,0,0,0,96.293,19.206a24.517,24.517,0,0,0,1.664,19.515c6.188,11.23,22.08,14.846,32.12,7.31S142.055,21.492,134,11.663s-24.311-10.28-32.851-.913" fill="#ffeadb" fill-rule="evenodd"/>
      </g>
    </g>
  </g>
</svg>
