<svg xmlns="http://www.w3.org/2000/svg" width="282.98" height="244.64" viewBox="0 0 282.98 244.64">
  <g id="Group_11" data-name="Group 11" transform="translate(-8834 -5150.353)">
    <path id="Fill-114" d="M255.734,121.018c0,66.479-57.026,120.374-127.371,120.374S.992,187.5.992,121.018,58.015.647,128.363.647s127.371,53.892,127.371,120.37" transform="translate(8843 5149.706)" fill="#ffeadb" fill-rule="evenodd"/>
    <g id="Page-1" transform="translate(8834.001 5080.992)">
      <g id="_03" data-name="03" transform="translate(-66 -98)">
        <g id="Group-109" transform="translate(66 98)">
          <path id="Fill-1" d="M107.256,140.927c-3.335,3.155-4.6,8.066-1.424,11.855a9.42,9.42,0,0,0,12.524,1.48c9.024-6.864-.381-19.532-10.12-16.91a1.592,1.592,0,0,0,.426,3.119c2.849.159,5.895.268,8.171,2.233a5.778,5.778,0,0,1,.492,8.117c-5.307,6.433-14.528-3.04-8.954-8.792a.784.784,0,0,0-1.115-1.1" fill="#7cabff" fill-rule="evenodd"/>
          <path id="Fill-3" d="M201.028,152.315c1.192,4.559,2.5,9.069,3.861,13.577a1.366,1.366,0,0,0,2.226.79c3.549-2.489,7.1-4.936,10.464-7.692a1.335,1.335,0,0,0-.134-2.052c-3.937-2.79-9.256-6.908-14.253-6.938-1.27-.006-2.159,1.839-.871,2.607,2.019,1.2,4.433,1.628,6.586,2.553a35.415,35.415,0,0,1,7.142,3.937c.052-.748.1-1.5.149-2.247-3.76,2.392-7.3,5.069-10.873,7.737l2.112.437c-1.526-4.452-3.091-8.875-4.782-13.263a.868.868,0,0,0-1.627.554" fill="#ff7081" fill-rule="evenodd"/>
          <path id="Fill-5" d="M226.412,174.89a106.123,106.123,0,0,0,15.843-8.913c1.791-1.263.026-3.727-1.863-2.755a103.685,103.685,0,0,0-14.959,9.685c-.932.71-.246,2.56.979,1.983" fill="#fbc580" fill-rule="evenodd"/>
          <path id="Fill-7" d="M25.977,192.91a97.528,97.528,0,0,0-4.743-16.849,1.678,1.678,0,0,0-3.181,1.04,96.138,96.138,0,0,0,5.726,16.224c.461,1.039,2.454.861,2.2-.415" fill="#ff957e" fill-rule="evenodd"/>
          <path id="Fill-9" d="M43.882,139.4l-.343-.3a3.848,3.848,0,0,0-5.448,5.435c.1.114.2.226.3.342a3.876,3.876,0,0,0,5.489-5.475" fill="#ff7643" fill-rule="evenodd"/>
          <path id="Fill-11" d="M187,293.19s-57.077,13.231-80-9.617L115.2,229c2.493-15.687,1.007-45.867,13.061-56.574a20.751,20.751,0,0,1,4.578-3.1c8.456-4.07,23.5-6.268,37.945-6.323,17.547-.067,35.607,13.155,40.213,30.028L192.008,237.3Z" fill="#ff7643" fill-rule="evenodd"/>
          <path id="Fill-13" d="M182.335,199.783s25.6,48.966,12.891,51.573c-41.822,8.578-66.094,15.613-66.094,15.613L127,283.093c.623,2.438,84.607.332,94.555-10.873,7.023-7.911,16.361-26.192-3.5-65.76L212.016,193Z" fill="#ffafa7" fill-rule="evenodd"/>
          <path id="Fill-15" d="M135,172.907,71.166,197.349l-2-33.121L55.5,159s-19.817,53.164,4.966,63.062,52.709-8.392,52.709-8.392Z" fill="#ffafa7" fill-rule="evenodd"/>
          <path id="Fill-17" d="M142,166c-21.97,7.052-35.072,15.317-66,28.315L91.882,230l27.373-8.855Z" fill="#ff7643" fill-rule="evenodd"/>
          <path id="Fill-19" d="M179.006,192.407,194.978,230,231,223.337,206.732,181,178,192.407" fill="#ff7643" fill-rule="evenodd"/>
          <path id="Fill-21" d="M159.435,217.734c7.725-.406,15.355-.09,23.074.006.675.01.634-.892,0-.964a120.356,120.356,0,0,0-23.074.1c-.574.048-.586.888,0,.856" fill="#ce5021" fill-rule="evenodd"/>
          <path id="Fill-23" d="M193.684,174c-25.971,2.367-8.207,41.014-1.551,52.714a.579.579,0,0,0,1-.588c-6.616-11.821-24.319-47.787.638-51.486.357-.053.278-.674-.085-.64" fill="#ce5021" fill-rule="evenodd"/>
          <path id="Fill-25" d="M121.326,196.244A210.708,210.708,0,0,0,115,235.517c-.035.545.911.683.992.131,1.916-13.1,3.843-26.16,6-39.227.069-.416-.558-.608-.669-.177" fill="#ce5021" fill-rule="evenodd"/>
          <path id="Fill-27" d="M183.3,125q.6-8.325,1.209-16.651c4.375-1.229,6.651-6.809,4.9-10.994s-6.7-6.535-11.2-5.893c2.84-1.928,2.624-6.532.293-9.049s-5.982-3.332-9.416-3.464-6.907.283-10.285-.341c-2.991-.556-5.922-1.922-8.941-1.543s-5.9,3.769-4.277,6.332c-4.354-.637-9.065-1.216-12.935.878s-5.811,8.054-2.487,10.93c-2.2,1.116-2.745,4.287-1.51,6.415a7.746,7.746,0,0,0,6.221,3.422,22.985,22.985,0,0,0,7.286-1.061" fill="#132b57" fill-rule="evenodd"/>
          <path id="Fill-29" d="M182.445,114.257l-.865,11.49s9.684,1.318,6.926,10.228-9.387,5.012-9.387,5.012-1.658,22.835-24.848,15.6c-18.457-5.764-17.329-29.869-14.986-50.42a13.66,13.66,0,0,1,16.174-11.9L169.4,97a16.3,16.3,0,0,1,13.044,17.26" fill="#ffafa7" fill-rule="evenodd"/>
          <path id="Fill-31" d="M181,136l-6.295,33.15a13.468,13.468,0,0,1-16.362,10.484,13.3,13.3,0,0,1-10.134-15.26l3.417-19Z" fill="#ffafa7" fill-rule="evenodd"/>
          <path id="Fill-33" d="M154.978,136.089c.037-.013.106.486-.568.831-.7.328-1.821-.387-2.109-1.561a11.357,11.357,0,0,1-.257-3.906c.074-1.5.151-3.02.23-4.62.392-6.554.945-11.85,1.246-11.833s.222,5.349-.166,11.9c-.112,1.6-.215,3.123-.319,4.616a12.585,12.585,0,0,0,0,3.61c.164.963.831,1.435,1.265,1.363s.606-.466.68-.4" fill="#241352" fill-rule="evenodd"/>
          <path id="Fill-35" d="M147.005,154.015a28.828,28.828,0,0,1,3.238,1.341,23.484,23.484,0,0,0,16.455.3,29.264,29.264,0,0,1,3.3-1.219c.084.094-.935.962-2.966,1.866a20.815,20.815,0,0,1-17.15-.317c-1.984-.979-2.959-1.884-2.874-1.974" fill="#241352" fill-rule="evenodd"/>
          <path id="Fill-37" d="M152.021,140.794c.133-.1.666.353,1.682.751a6.581,6.581,0,0,0,4.11.263,5.768,5.768,0,0,0,3.17-2.332c.561-.848.693-1.491.871-1.476.134,0,.3.71-.141,1.78a5.477,5.477,0,0,1-3.549,2.99,6.385,6.385,0,0,1-4.856-.6c-1.066-.64-1.4-1.307-1.287-1.375" fill="#241352" fill-rule="evenodd"/>
          <path id="Fill-39" d="M182,136.794c-.014-.166.566-.248,1.209-.643a1.513,1.513,0,0,0,.7-.9c.1-.413-.015-.8-.338-.9a.522.522,0,0,0-.578.08l-.935-.481c.876-1.8,1.659-3.044,1.889-2.943s-.171,1.512-.924,3.367l-.933-.483a1.527,1.527,0,0,1,1.872-.563,1.578,1.578,0,0,1,.964,1.032,1.9,1.9,0,0,1-.057,1.208,2.156,2.156,0,0,1-1.327,1.283c-.975.307-1.547.067-1.543-.056" fill="#241352" fill-rule="evenodd"/>
          <path id="Fill-41" d="M164.007,114.7c-.1-.258.929-.864,2.227-.478s1.928,1.47,1.73,1.642c-.193.2-.945-.35-1.967-.634-1.011-.314-1.914-.246-1.99-.53" fill="#241352" fill-rule="evenodd"/>
          <path id="Fill-43" d="M143.01,110.176c-.128-.248,1-1,2.578-.854s2.561,1.074,2.393,1.294c-.159.25-1.187-.156-2.481-.256-1.295-.13-2.376.09-2.49-.184" fill="#241352" fill-rule="evenodd"/>
          <path id="Fill-45" d="M180.968,126.379c-6.483-6.445-8.388-17.182-10.147-26.235a22.335,22.335,0,0,1-21.185,2.812,34.333,34.333,0,0,1-7.547,6.722,3.324,3.324,0,0,1-2.667.754c-1.088-.335-1.572-1.606-1.832-2.734a19.808,19.808,0,0,1,.378-10.965,13.094,13.094,0,0,1,7.218-7.891c3.625-1.433,7.706-.81,11.469.185a63.148,63.148,0,0,1,16.193,6.821c4.96,2.963,9.726,6.883,11.829,12.34s2.1,16.054-2.978,18.812" fill="#132b57" fill-rule="evenodd"/>
          <path id="Fill-47" d="M165.882,123c-.288-.018-.466-.706-.4-1.534s.352-1.484.638-1.466.468.706.4,1.534-.35,1.484-.636,1.466" fill="#241352" fill-rule="evenodd"/>
          <path id="Fill-49" d="M146.881,121c-.288-.018-.466-.706-.4-1.534s.35-1.484.636-1.466.468.706.4,1.534-.35,1.484-.638,1.466" fill="#241352" fill-rule="evenodd"/>
          <path id="Fill-51" d="M54,160.531s2.826-17.465,6.2-17.277,10.131,0,10.131,0,.565-16.612,2.442-13.969S75.243,154.278,68.006,165Z" fill="#ffafa7" fill-rule="evenodd"/>
          <path id="Fill-53" d="M129,267s-29.572,5.263-28.992,9.165A28.518,28.518,0,0,0,102.662,284L129,283.37Z" fill="#ffafa7" fill-rule="evenodd"/>
          <path id="Fill-55" d="M162,284.691l-.229-4.176-62.381-3.8L78.469,221,10,224.747,33.36,285Z" fill="#132b57" fill-rule="evenodd"/>
          <path id="Fill-57" d="M48.008,251.274a5,5,0,1,0,4.719-5.266,5,5,0,0,0-4.719,5.266" fill="#fff" fill-rule="evenodd"/>
          <path id="Fill-59" d="M46.011,251.385a7,7,0,1,0,6.6-7.374,7,7,0,0,0-6.6,7.374" fill="#fff" fill-rule="evenodd"/>
          <g id="Group-63" transform="translate(0 282)">
            <path id="Fill-61" d="M0,4.188,267.325.935l15.654,8.015S77.762,63.857,0,4.188" fill="#f8d5bd" fill-rule="evenodd"/>
          </g>
          <path id="Fill-93" d="M60.229,188.242c.276-1.81.223-3.534,1.251-5.131,2.051-3.181,4.961-2.38,7.778-.982,2.871,1.426,5.573,2.279,8.7.949,4.875-2.081,7.161-9.329,2.511-12.738-1.506-1.1-2.989.718-2.788,2.114.281,1.95,1.262,4.094-.433,5.771-2.265,2.242-4.922.36-7.183-.646a9.517,9.517,0,0,0-7.558-.321c-4.337,1.73-7.483,7.528-4.037,11.443a1.065,1.065,0,0,0,1.761-.459" fill="#ff7643" fill-rule="evenodd"/>
          <path id="Fill-97" d="M209.154,87.412c-.81,1.583,1.84,42.466,1.84,42.466l20-1.672L228.66,139l9.772-11.1L258,125.63,256.812,86Z" fill="#ff7643" fill-rule="evenodd"/>
          <path id="Fill-99" d="M220,105.414,224.235,120l5.927-1.145-.579-2.937,1.681-1,3.175,3.112,10.04-1.939,1.3-3.8-2.857-.633,3.688-1.222-.8-4.075-3.19.277L247,105.45l-1-5.057-10.2,1.97S236.46,95.3,233.448,93l-2.306.447a12.362,12.362,0,0,1,.705,3.586,71.775,71.775,0,0,1-2.076,7.678l-3.133,1.452-.743-2.057Z" fill="#fff" fill-rule="evenodd"/>
          <path id="Fill-101" d="M14,78l3.406,40.685H92.232L96.373,133l4.369-15.7,14.258-.83-6.572-36.44Z" fill="#ff7643" fill-rule="evenodd"/>
          <path id="Fill-103" d="M23.6,92.836A644.351,644.351,0,0,1,100.314,94c.912.073.917-1.2,0-1.262A636.238,636.238,0,0,0,23.6,91.74a.55.55,0,1,0,0,1.1" fill="#fff" fill-rule="evenodd"/>
          <path id="Fill-105" d="M25.6,101.836A644.436,644.436,0,0,1,102.314,103c.912.073.917-1.2,0-1.264a636.6,636.6,0,0,0-76.716-.992.55.55,0,1,0,0,1.1" fill="#fff" fill-rule="evenodd"/>
          <path id="Fill-107" d="M25.6,108.179c17.308.552,34.416-.636,51.708.818.917.078.924-1.29,0-1.35-17.272-1.11-34.414-.4-51.708-.64a.586.586,0,1,0,0,1.172" fill="#fff" fill-rule="evenodd"/>
        </g>
      </g>
    </g>
    <path id="Fill-74" d="M.371,3.547C4.135,2.528,8.02,1.651,11.7.418c.294-.1.186-.478-.133-.41C7.731.817,3.97,2.023.209,3.051a.262.262,0,1,0,.161.5" transform="translate(8903.978 5348.432) rotate(-135)" fill="#ffeadb" fill-rule="evenodd"/>
    <path id="Fill-76" d="M.323.822C2.661.778,5.095.9,7.415.627a.286.286,0,1,0,0-.572C5.083-.107,2.66.135.323.2a.309.309,0,1,0,0,.617" transform="translate(8894.875 5350.82) rotate(-135)" fill="#ffeadb" fill-rule="evenodd"/>
    <path id="Fill-78" d="M8.788,7.147C6.169,4.819,3.668,1.915.684.072.216-.216-.218.425.121.818,2.41,3.464,5.621,5.43,8.313,7.632c.332.272.806-.191.475-.484" transform="translate(8885.935 5356.404) rotate(-135)" fill="#ffeadb" fill-rule="evenodd"/>
    <path id="Fill-80" d="M2.966,4.574a4.671,4.671,0,0,0-.883-2.163A11.888,11.888,0,0,0,.745.129.44.44,0,0,0,.024.583,11.828,11.828,0,0,0,1.316,2.9c.379.629.747,1.509,1.4,1.832a.167.167,0,0,0,.248-.153" transform="translate(8877.124 5348.432) rotate(-135)" fill="#ffeadb" fill-rule="evenodd"/>
    <path id="Fill-82" d="M1.018,11.444A84.562,84.562,0,0,0,.862.406.382.382,0,1,0,.1.406a84.236,84.236,0,0,0,.25,11.038.334.334,0,1,0,.667,0" transform="translate(8866.294 5349.345) rotate(-135)" fill="#ffeadb" fill-rule="evenodd"/>
    <path id="Fill-85" d="M.562,4.6A30.046,30.046,0,0,0,2.919.627.413.413,0,0,0,2.213.2,30.355,30.355,0,0,0,.037,4.28.307.307,0,0,0,.562,4.6" transform="translate(8869.151 5340.459) rotate(-135)" fill="#ffeadb" fill-rule="evenodd"/>
    <path id="Fill-87" d="M.349,5.91a54.363,54.363,0,0,0,4.884-2.5A27.456,27.456,0,0,0,9.976.631a.37.37,0,0,0-.36-.615,25.579,25.579,0,0,0-4.551,2.4A57.209,57.209,0,0,0,.123,5.379c-.244.174-.1.669.225.531" transform="translate(8867.054 5336.683) rotate(-135)" fill="#ffeadb" fill-rule="evenodd"/>
    <path id="Fill-89" d="M.264,1.584A6.085,6.085,0,0,0,5.189.75C5.57.42,5.164-.066,4.712.007,3.96.126,3.266.485,2.517.643S1.009.8.264.936a.331.331,0,0,0,0,.647" transform="translate(8872.928 5329.131) rotate(-135)" fill="#ffeadb" fill-rule="evenodd"/>
    <path id="Fill-91" d="M.287.7A142.29,142.29,0,0,0,14.933,3.557a.459.459,0,0,0,.138-.9A141.1,141.1,0,0,0,.5.006C0-.07-.22.582.287.7" transform="translate(8877.124 5323.256) rotate(-135)" fill="#ffeadb" fill-rule="evenodd"/>
  </g>
</svg>
